<svg xmlns="http://www.w3.org/2000/svg" width="155" height="133" fill="none"><path fill="#ED7F22" fill-rule="evenodd" d="M86.4775.7647a46.911 46.911 0 0 0-32.7406 80.08 46.9113 46.9113 0 0 0 32.7406 13.7379c.036.0008.0721.0013.1082.0016l.0873.0004h19.631c5.247 0 9.5-4.2533 9.5-9.5s-4.253-9.5-9.5-9.5H86.6677a27.912 27.912 0 0 1-.0001-55.8219H106.304c5.247 0 9.5-4.2533 9.5-9.5s-4.253-9.5-9.5-9.5H86.673c-.0655 0-.1304.0007-.1955.002Z" clip-rule="evenodd"/><path fill="#ED7F22" fill-rule="evenodd" d="M10.473.7627c5.2467 0 9.5 4.2533 9.5 9.5v74.8218c0 .0405-.0002.081-.0007.1214a27.9122 27.9122 0 0 0 2.1243 10.5501 27.9165 27.9165 0 0 0 15.1059 15.106 27.9068 27.9068 0 0 0 10.6815 2.125v.052h59.993v-.053c7.403 0 14.502-2.94 19.737-8.175a27.9132 27.9132 0 0 0 8.175-19.7366 27.914 27.914 0 0 0-8.175-19.7368 27.9124 27.9124 0 0 0-19.604-8.1749c-.025.0003-.05.0006-.075.0007l-.054.0002H88.4812c-5.2467 0-9.5-4.2533-9.5-9.5s4.2533-9.5 9.5-9.5h19.3958v-.0001a46.9088 46.9088 0 0 1 33.171 13.7399 46.9088 46.9088 0 0 1 13.74 33.171c0 12.4416-4.942 24.3736-13.74 33.1706-8.469 8.47-19.844 13.366-31.781 13.72-.39.048-.787.074-1.19.074H47.5986a9.571 9.571 0 0 1-1.2163-.078 46.9071 46.9071 0 0 1-16.4504-3.546 46.9204 46.9204 0 0 1-15.219-10.169 46.9257 46.9257 0 0 1-10.169-15.219A46.9146 46.9146 0 0 1 .973 85.0745m0 0V10.2627c0-5.2467 4.2533-9.5 9.5-9.5" clip-rule="evenodd"/></svg>